<svg viewBox="0 0 265 200" fill="none" xmlns="http://www.w3.org/2000/svg">
  <path d="m 0,0 v -44.734 h -56.331 c -2.247,14.229 -13.132,26.141 -27.032,29.784 -19.768,5.18 -39.918,-6.44 -45.276,-26.026 -0.341,-1.244 -0.63,-2.472 -0.834,-3.758 h -56.365 v 0.207 44.32 L -185.631,0 Z" fill="white" transform="matrix(1.3333333,0,0,-1.3333333,256.2664,8.3381333)"/>
  <path d="m 0,0 c 1.379,-9.605 7.109,-18.469 14.95,-24.054 10.547,-7.513 24.178,-8.983 36.131,-3.9 11.499,4.89 19.915,15.596 21.957,27.954 h 56.331 V -44.596 H -56.469 V 0 Z" fill="white" transform="matrix(1.3333333,0,0,-1.3333333,83.774533,84.183067)"/>
  <path d="M 0,0 C 15.595,0.989 25.369,-15.799 17.689,-29.224 9.192,-44.077 -12.273,-40.868 -16.709,-24.514 -19.782,-13.186 -11.978,-0.76 0,0 m -1.832,-16.986 h -8.041 v -3.954 h 8.041 l -5.011,-9.522 3.456,-1.81 4.884,9.09 4.777,-9 0.245,0.021 3.222,1.728 -4.982,9.493 h 7.976 v 3.954 H 4.759 l 5.009,9.491 -3.492,1.78 -4.779,-9.03 -4.879,9.097 -3.451,-1.878 z" fill="white" transform="matrix(1.3333333,0,0,-1.3333333,130.38547,50.1796)"/>
  <path d="M 0,0 C 9.236,1.25 10.093,-12.427 1.357,-12.811 -6.671,-13.163 -7.608,-1.029 0,0" fill="white" transform="matrix(1.3333333,0,0,-1.3333333,171.63733,164.01693)"/>
  <path d="M 0,0 C 9.233,1.249 10.073,-12.428 1.357,-12.811 -6.71,-13.164 -7.588,-1.027 0,0" fill="white" transform="matrix(1.3333333,0,0,-1.3333333,130.85933,164.01693)"/>
  <path d="M 0,0 C 9.209,1.246 10.077,-12.428 1.357,-12.811 -6.711,-13.164 -7.588,-1.026 0,0" fill="white" transform="matrix(1.3333333,0,0,-1.3333333,90.082933,164.01693)"/>
</svg>
